<svg width="440" height="440" viewBox="0 0 440 440" fill="none" xmlns="http://www.w3.org/2000/svg">
<circle cx="220" cy="220" r="220" fill="#757575"/>
<path d="M114.705 192V145.455H124.546V183.886H144.501V192H114.705ZM190.57 168.727C190.57 173.803 189.608 178.121 187.684 181.682C185.774 185.242 183.168 187.962 179.865 189.841C176.578 191.705 172.881 192.636 168.774 192.636C164.638 192.636 160.926 191.697 157.638 189.818C154.35 187.939 151.752 185.22 149.843 181.659C147.934 178.098 146.979 173.788 146.979 168.727C146.979 163.652 147.934 159.333 149.843 155.773C151.752 152.212 154.35 149.5 157.638 147.636C160.926 145.758 164.638 144.818 168.774 144.818C172.881 144.818 176.578 145.758 179.865 147.636C183.168 149.5 185.774 152.212 187.684 155.773C189.608 159.333 190.57 163.652 190.57 168.727ZM180.593 168.727C180.593 165.439 180.1 162.667 179.115 160.409C178.146 158.152 176.774 156.439 175.002 155.273C173.229 154.106 171.153 153.523 168.774 153.523C166.396 153.523 164.32 154.106 162.547 155.273C160.774 156.439 159.396 158.152 158.411 160.409C157.441 162.667 156.956 165.439 156.956 168.727C156.956 172.015 157.441 174.788 158.411 177.045C159.396 179.303 160.774 181.015 162.547 182.182C164.32 183.348 166.396 183.932 168.774 183.932C171.153 183.932 173.229 183.348 175.002 182.182C176.774 181.015 178.146 179.303 179.115 177.045C180.1 174.788 180.593 172.015 180.593 168.727ZM196.452 192V145.455H214.815C218.33 145.455 221.33 146.083 223.815 147.341C226.315 148.583 228.217 150.348 229.52 152.636C230.838 154.909 231.497 157.583 231.497 160.659C231.497 163.75 230.83 166.409 229.497 168.636C228.164 170.848 226.232 172.545 223.702 173.727C221.187 174.909 218.141 175.5 214.565 175.5H202.27V167.591H212.974C214.853 167.591 216.414 167.333 217.656 166.818C218.899 166.303 219.823 165.53 220.429 164.5C221.05 163.47 221.361 162.189 221.361 160.659C221.361 159.114 221.05 157.811 220.429 156.75C219.823 155.689 218.891 154.886 217.634 154.341C216.391 153.78 214.823 153.5 212.929 153.5H206.293V192H196.452ZM221.588 170.818L233.156 192H222.293L210.974 170.818H221.588ZM237.044 192V145.455H268.407V153.568H246.885V164.659H266.794V172.773H246.885V183.886H268.498V192H237.044ZM274.823 145.455H286.96L299.778 176.727H300.323L313.141 145.455H325.278V192H315.732V161.705H315.346L303.3 191.773H296.8L284.755 161.591H284.369V192H274.823V145.455ZM90.3237 220.182V290H75.5623V220.182H90.3237ZM100.261 290V220.182H127.806C133.101 220.182 137.613 221.193 141.34 223.216C145.067 225.216 147.908 228 149.863 231.568C151.84 235.114 152.829 239.205 152.829 243.841C152.829 248.477 151.829 252.568 149.829 256.114C147.829 259.659 144.931 262.42 141.136 264.398C137.363 266.375 132.795 267.364 127.431 267.364H109.874V255.534H125.045C127.886 255.534 130.226 255.045 132.067 254.068C133.931 253.068 135.317 251.693 136.226 249.943C137.158 248.17 137.624 246.136 137.624 243.841C137.624 241.523 137.158 239.5 136.226 237.773C135.317 236.023 133.931 234.67 132.067 233.716C130.204 232.739 127.84 232.25 124.976 232.25H115.022V290H100.261ZM198.084 240.261C197.811 237.511 196.641 235.375 194.572 233.852C192.504 232.33 189.697 231.568 186.152 231.568C183.743 231.568 181.709 231.909 180.05 232.591C178.391 233.25 177.118 234.17 176.232 235.352C175.368 236.534 174.936 237.875 174.936 239.375C174.891 240.625 175.152 241.716 175.72 242.648C176.311 243.58 177.118 244.386 178.141 245.068C179.163 245.727 180.345 246.307 181.686 246.807C183.027 247.284 184.459 247.693 185.982 248.034L192.254 249.534C195.3 250.216 198.095 251.125 200.641 252.261C203.186 253.398 205.391 254.795 207.254 256.455C209.118 258.114 210.561 260.068 211.584 262.318C212.629 264.568 213.163 267.148 213.186 270.057C213.163 274.33 212.072 278.034 209.913 281.17C207.777 284.284 204.686 286.705 200.641 288.432C196.618 290.136 191.766 290.989 186.084 290.989C180.447 290.989 175.538 290.125 171.357 288.398C167.197 286.67 163.947 284.114 161.607 280.727C159.288 277.318 158.072 273.102 157.959 268.08H172.243C172.402 270.42 173.072 272.375 174.254 273.943C175.459 275.489 177.061 276.659 179.061 277.455C181.084 278.227 183.368 278.614 185.913 278.614C188.413 278.614 190.584 278.25 192.425 277.523C194.288 276.795 195.732 275.784 196.754 274.489C197.777 273.193 198.288 271.705 198.288 270.023C198.288 268.455 197.822 267.136 196.891 266.068C195.982 265 194.641 264.091 192.868 263.341C191.118 262.591 188.97 261.909 186.425 261.295L178.822 259.386C172.936 257.955 168.288 255.716 164.879 252.67C161.47 249.625 159.777 245.523 159.8 240.364C159.777 236.136 160.902 232.443 163.175 229.284C165.47 226.125 168.618 223.659 172.618 221.886C176.618 220.114 181.163 219.227 186.254 219.227C191.436 219.227 195.959 220.114 199.822 221.886C203.709 223.659 206.732 226.125 208.891 229.284C211.05 232.443 212.163 236.102 212.232 240.261H198.084ZM264.032 220.182H278.793V265.523C278.793 270.614 277.578 275.068 275.146 278.886C272.737 282.705 269.362 285.682 265.021 287.818C260.68 289.932 255.623 290.989 249.85 290.989C244.055 290.989 238.987 289.932 234.646 287.818C230.305 285.682 226.93 282.705 224.521 278.886C222.112 275.068 220.907 270.614 220.907 265.523V220.182H235.668V264.261C235.668 266.92 236.248 269.284 237.407 271.352C238.589 273.42 240.248 275.045 242.384 276.227C244.521 277.409 247.009 278 249.85 278C252.714 278 255.203 277.409 257.316 276.227C259.453 275.045 261.1 273.42 262.259 271.352C263.441 269.284 264.032 266.92 264.032 264.261V220.182ZM288.73 220.182H306.935L326.162 267.091H326.98L346.208 220.182H364.412V290H350.094V244.557H349.514L331.446 289.659H321.696L303.628 244.386H303.048V290H288.73V220.182Z" fill="white"/>
</svg>
